<svg width="28" height="28" viewBox="0 0 28 28" fill="none" xmlns="http://www.w3.org/2000/svg">
<g id="iconmonstr-location-25 1">
<path id="Vector" d="M14 1.83795C10.3273 1.83795 7 4.81645 7 8.49028C7 12.163 10.0357 16.5485 14 22.838C17.9643 16.5485 21 12.163 21 8.49028C21 4.81645 17.6738 1.83795 14 1.83795ZM14 11.1713C12.7108 11.1713 11.6667 10.1271 11.6667 8.83795C11.6667 7.54878 12.7108 6.50462 14 6.50462C15.2892 6.50462 16.3333 7.54878 16.3333 8.83795C16.3333 10.1271 15.2892 11.1713 14 11.1713ZM23.3333 18.1713H19.6758C19.2267 18.9191 18.7448 19.6985 18.2385 20.5046H21.8913L22.4747 21.6713H17.5L17.0987 22.306L16.7615 22.838H17.4125L18.4135 25.1713H9.6775L10.6785 22.838H11.2373L10.9002 22.306L10.5 21.6713H8.11767L6.93817 20.5046H9.7615C9.254 19.6985 8.77217 18.9191 8.32417 18.1713H4.66667L0 27.5046H28L23.3333 18.1713ZM8.407 25.1713H3.77533L5.83333 21.0553L7.602 22.838H9.40917L8.407 25.1713ZM18.683 22.838H23.058L24.2247 25.1713H19.684L18.683 22.838Z" fill="url(#paint0_linear_41_319)"/>
</g>
<defs>
<linearGradient id="paint0_linear_41_319" x1="14" y1="1.83795" x2="14" y2="27.5046" gradientUnits="userSpaceOnUse">
<stop stop-color="#E6A40B"/>
<stop offset="1" stop-color="#FF9900"/>
</linearGradient>
</defs>
</svg>
