<svg width="127" height="32" viewBox="0 0 127 32" fill="none" xmlns="http://www.w3.org/2000/svg">
<g clip-path="url(#clip0_39_149)">
<path d="M3.48168 29.9132C3.08593 29.6098 2.81196 29.2374 2.65975 28.7961C2.50754 28.3548 2.43143 27.8721 2.43143 27.348C2.43143 27.0171 2.44665 26.6861 2.4771 26.3551C2.53798 25.9965 2.59886 25.6379 2.65975 25.2794C2.90328 24.1761 3.31425 22.8659 3.89265 21.3489C4.5015 19.8318 5.18644 18.2458 5.94748 16.5909C6.73898 14.9359 7.53045 13.3362 8.32195 11.7915C9.14388 10.2193 9.87449 8.84018 10.5138 7.65415C11.1835 6.44051 11.6858 5.54409 12.0206 4.96485C12.1424 4.74418 12.249 4.53731 12.3403 4.34425C12.462 4.15118 12.5838 3.97188 12.7056 3.80639L11.0617 4.01326C9.69184 4.17875 8.27629 4.4408 6.81507 4.79936C5.38429 5.15792 4.09053 5.62683 2.93373 6.20607C1.80737 6.75773 0.985438 7.43348 0.467928 8.23338C0.437483 8.31613 0.376602 8.3575 0.285275 8.3575C0.224391 8.3575 0.178728 8.30233 0.148286 8.19201C0.0874025 8.08169 0.0721814 7.95757 0.102623 7.81964C0.407043 7.10249 0.787568 6.41294 1.2442 5.75096C1.70083 5.08898 2.14223 4.56492 2.56842 4.17875C3.23814 3.54435 4.15139 3.08924 5.3082 2.81342C6.465 2.5376 7.65224 2.35831 8.86991 2.27556C10.118 2.19281 11.1835 2.15144 12.0663 2.15144H21.0619C23.1624 2.15144 24.8367 2.44106 26.0848 3.02029C27.3634 3.59952 28.2766 4.37182 28.8246 5.33722C29.3726 6.27501 29.5856 7.28178 29.4639 8.3575C29.3421 9.51597 28.9768 10.5227 28.368 11.3778C27.7591 12.2328 26.9981 12.9638 26.0848 13.5706C25.202 14.1498 24.2735 14.6187 23.2994 14.9773C22.3557 15.3083 21.4729 15.5565 20.6509 15.722C23.2081 16.1633 25.0346 16.9219 26.1305 17.9976C27.2264 19.0733 27.7744 20.3559 27.7744 21.8453C27.7744 23.0314 27.4547 24.1485 26.8154 25.1966C26.2066 26.2172 25.3695 27.1412 24.304 27.9687C23.3907 28.6858 22.1882 29.334 20.6966 29.9132C19.205 30.4649 17.5915 30.9062 15.8563 31.2372C14.1211 31.5682 12.4012 31.7337 10.6964 31.7337C9.26564 31.7337 7.91098 31.582 6.63242 31.2785C5.35386 31.0027 4.30361 30.5476 3.48168 29.9132ZM9.05256 29.9132C9.47876 29.9684 9.90492 30.0098 10.3311 30.0373C10.7573 30.0649 11.1835 30.0787 11.6097 30.0787C13.1013 30.0787 14.5625 29.8856 15.9933 29.4995C17.4241 29.0857 18.6722 28.4376 19.7377 27.5549C20.8336 26.6723 21.6099 25.5138 22.0665 24.0795C22.3405 23.2796 22.4775 22.4659 22.4775 21.6385C22.4775 20.3421 22.1122 19.1836 21.3815 18.1631C20.6814 17.1149 19.5703 16.5081 18.0482 16.3426C17.7133 16.4254 17.211 16.5219 16.5413 16.6322C15.8716 16.7426 15.1714 16.8391 14.4408 16.9219C13.7102 17.0046 13.0861 17.046 12.5686 17.046C12.0815 17.046 11.838 16.9494 11.838 16.7564C11.838 16.5909 11.975 16.3978 12.249 16.1771C12.5229 15.9289 12.8273 15.722 13.1622 15.5565C13.4971 15.3635 13.7711 15.2531 13.9842 15.2255C14.5321 15.1428 15.1714 15.1014 15.902 15.1014C16.2977 15.1014 16.6935 15.1152 17.0892 15.1428C17.5154 15.1704 17.9568 15.2117 18.4135 15.2669C19.3876 14.9911 20.1943 14.6187 20.8336 14.1498C21.4729 13.6809 22.0208 13.2396 22.4775 12.8259C23.2081 12.1363 23.7713 11.3502 24.167 10.4676C24.5627 9.55734 24.7606 8.67469 24.7606 7.81964C24.7606 6.68875 24.4562 5.8199 23.8473 5.2131C23.269 4.57869 22.4927 4.12358 21.5185 3.84776C20.5444 3.57195 19.4941 3.42022 18.3678 3.39265C17.8198 4.05463 17.2415 4.84073 16.6326 5.75096C16.0542 6.63361 15.5063 7.54383 14.9887 8.48162C14.4712 9.41942 14.0146 10.2883 13.6188 11.0882C12.7665 12.7431 11.8684 14.5498 10.9247 16.5081C10.0115 18.4665 9.25044 20.3697 8.64159 22.2177C8.33718 23.0728 8.03274 23.9968 7.72833 24.9897C7.45435 25.9551 7.31737 26.824 7.31737 27.5963C7.31737 28.2031 7.43912 28.7134 7.68267 29.1271C7.92622 29.5409 8.38285 29.8029 9.05256 29.9132Z" fill="#F7F7F7"/>
<path d="M43.6677 31.2785C42.7241 31.2785 42.0695 30.9475 41.7042 30.2856C41.3692 29.6236 41.2019 28.8099 41.2019 27.8445C41.2019 26.9619 41.2933 26.093 41.4759 25.238C41.5672 24.8518 41.6586 24.4657 41.7499 24.0795C41.8715 23.6658 42.0085 23.2382 42.1608 22.7969C41.6432 23.652 41.0953 24.4794 40.517 25.2793C39.969 26.0793 39.4057 26.7826 38.8275 27.3894C37.8532 28.4651 36.8183 29.3615 35.7224 30.0787C34.6569 30.7959 33.5915 31.1544 32.526 31.1544C31.6736 31.1544 30.943 30.8786 30.3341 30.3269C29.7558 29.7477 29.4666 28.7547 29.4666 27.348C29.4666 25.9138 29.7405 24.4381 30.2885 22.921C30.8364 21.404 31.5975 19.9973 32.5716 18.7009C33.5762 17.377 34.7482 16.315 36.0877 15.5151C37.4576 14.7152 38.9491 14.3153 40.5626 14.3153C41.0803 14.3153 41.6432 14.3843 42.2522 14.5222C42.8611 14.6601 43.4241 14.9221 43.9417 15.3083C44.4593 15.6668 44.8093 16.1771 44.9919 16.8391C45.0223 16.7839 45.0529 16.7426 45.0833 16.715C45.1443 16.6874 45.1899 16.6598 45.2203 16.6322C45.6466 16.0254 46.1335 15.5151 46.6815 15.1014C47.2294 14.6877 47.8384 14.4808 48.508 14.4808C48.843 14.4808 49.3146 14.4946 49.9235 14.5222C50.5325 14.5497 50.9738 14.5497 51.2478 14.5222C51.0954 14.6325 50.8825 14.8532 50.6085 15.1842C50.3648 15.5151 50.1365 15.8599 49.9235 16.2185C49.7106 16.5495 49.5429 16.8115 49.4213 17.0046C48.5993 18.4389 47.8534 19.8594 47.1838 21.2661C46.5142 22.6728 45.9965 24.0243 45.6312 25.3207C45.5399 25.5965 45.4789 25.8586 45.4486 26.1068C45.4183 26.3275 45.4029 26.5481 45.4029 26.7688C45.4029 27.486 45.6616 27.8445 46.1792 27.8445C46.6661 27.8445 47.2751 27.5687 48.0057 27.017C49.0713 26.2447 49.9995 25.2793 50.7911 24.1209C51.6131 22.9624 52.3283 21.8453 52.9373 20.7696C53.0589 20.5765 53.1656 20.48 53.2569 20.48C53.4396 20.48 53.5309 20.7144 53.5309 21.1833C53.5309 21.404 53.4853 21.6523 53.3939 21.9281C53.3329 22.2039 53.2266 22.4659 53.0743 22.7142C52.648 23.3762 52.085 24.1898 51.3848 25.1552C50.7152 26.1206 49.9539 27.0722 49.1016 28.01C48.2494 28.9202 47.3511 29.6925 46.4075 30.3269C45.4942 30.9614 44.581 31.2785 43.6677 31.2785ZM34.5808 27.679C34.6721 27.7066 34.8091 27.7204 34.9918 27.7204C35.5702 27.7204 36.1943 27.4997 36.8639 27.0584C37.5336 26.6171 38.2035 26.0516 38.8731 25.3621C39.5427 24.6449 40.1363 23.9278 40.654 23.2107C41.9935 21.2799 42.9828 19.8318 43.6221 18.8664C44.2613 17.901 44.6266 17.3494 44.718 17.2115C44.5656 16.7426 44.2917 16.3978 43.896 16.1771C43.5307 15.9565 43.0894 15.8461 42.5718 15.8461C41.9022 15.8461 41.1866 16.0116 40.4257 16.3426C39.695 16.6736 39.0711 17.0735 38.5535 17.5425C37.7619 18.2596 37.0009 19.1836 36.2703 20.3145C35.5702 21.4454 34.9918 22.5625 34.5351 23.6658C34.1089 24.7691 33.8959 25.6931 33.8959 26.4378C33.8959 27.1274 34.1242 27.5411 34.5808 27.679Z" fill="#F7F7F7"/>
<path d="M57.1681 31.8578C56.1332 31.8578 55.159 31.7337 54.2457 31.4854C53.3324 31.2372 52.5865 30.851 52.0082 30.3269C51.4299 29.8029 51.1406 29.1409 51.1406 28.341C51.1406 27.7342 51.3386 27.1412 51.7342 26.5619C52.1605 25.9827 52.7542 25.6931 53.5151 25.6931C53.8501 25.6931 54.1544 25.762 54.4284 25.9C54.7023 26.0379 54.885 26.2171 54.9763 26.4378C54.946 26.4654 54.8696 26.5619 54.748 26.7274C54.6263 26.8654 54.55 26.9619 54.5197 27.017C54.2457 27.5135 54.1087 27.9686 54.1087 28.3824C54.1087 28.9616 54.337 29.4305 54.7937 29.7891C55.2806 30.1476 55.9049 30.3269 56.6658 30.3269C57.6704 30.2994 58.538 29.9822 59.2686 29.3753C60.0296 28.7409 60.4102 27.9962 60.4102 27.1412C60.4102 26.6447 60.2886 26.1758 60.0449 25.7345C59.6493 24.9897 59.1163 24.3553 58.4467 23.8313C57.8074 23.2796 57.1835 22.728 56.5745 22.1763C55.9962 21.6247 55.5699 20.9627 55.296 20.1904C55.1743 19.8318 55.1133 19.3905 55.1133 18.8664C55.1133 18.3424 55.1893 17.8321 55.3416 17.3356C55.4939 16.8115 55.7223 16.3702 56.0266 16.0116C56.4529 15.4876 57.0921 15.0049 57.9444 14.5636C59.01 14.0395 60.2579 13.7775 61.6888 13.7775C62.6323 13.7775 63.4696 13.8878 64.2002 14.1084C64.7482 14.2739 65.2201 14.5497 65.6158 14.9359C66.0421 15.2945 66.2551 15.7772 66.2551 16.384C66.2551 17.0735 66.0114 17.7355 65.5244 18.3699C65.0678 18.9767 64.3982 19.3491 63.5153 19.487C62.9673 19.5422 62.4804 19.4595 62.0541 19.2388C61.6278 18.9905 61.4758 18.5354 61.5974 17.8735C62.4194 17.708 63.013 17.4045 63.3783 16.9632C63.5609 16.715 63.6523 16.4667 63.6523 16.2185C63.6523 15.7496 63.4393 15.4324 63.013 15.2669C62.6174 15.0738 62.2367 14.9773 61.8714 14.9773C61.4148 14.9773 60.9735 15.0325 60.5472 15.1428C60.1516 15.2255 59.7863 15.3772 59.4513 15.5979C58.7817 16.122 58.4467 16.7288 58.4467 17.4183C58.4467 17.5287 58.462 17.6528 58.4924 17.7907C58.5534 17.9286 58.599 18.0665 58.6293 18.2044C58.7817 18.563 59.01 18.894 59.3143 19.1974C59.6186 19.5008 59.9232 19.7628 60.2275 19.9835C60.9885 20.48 61.7647 21.0179 62.5564 21.5971C63.3783 22.1763 63.9872 22.8797 64.3829 23.7071C64.6872 24.2864 64.8395 24.8794 64.8395 25.4862C64.8395 26.3137 64.6112 27.0722 64.1546 27.7618C63.6979 28.4238 63.1803 28.9478 62.602 29.334C63.6066 28.9478 64.5809 28.2721 65.5244 27.3067C66.4987 26.3137 67.3356 25.3345 68.0359 24.3691C68.4925 23.7347 68.9035 23.1417 69.2688 22.5901C69.6644 22.0108 70.0604 21.3764 70.456 20.6869C70.5777 20.4938 70.6844 20.3972 70.7757 20.3972C70.9583 20.3972 71.0497 20.6317 71.0497 21.1006C71.0497 21.2937 71.004 21.5281 70.9127 21.804C70.8517 22.0798 70.7454 22.3556 70.593 22.6314C70.0451 23.4589 69.5274 24.2312 69.0405 24.9484C68.5535 25.6379 67.9599 26.3964 67.2596 27.2239C65.8594 28.9064 64.3675 30.1063 62.7847 30.8234C61.2018 31.513 59.3296 31.8578 57.1681 31.8578Z" fill="#F7F7F7"/>
<path d="M74.654 31.8578C73.6191 31.8578 72.6448 31.7337 71.7315 31.4854C70.8183 31.2372 70.0723 30.851 69.4941 30.3269C68.9158 29.8029 68.6265 29.1409 68.6265 28.341C68.6265 27.7342 68.8245 27.1412 69.2201 26.5619C69.6464 25.9827 70.24 25.6931 71.0009 25.6931C71.3359 25.6931 71.6402 25.762 71.9142 25.9C72.1882 26.0379 72.3708 26.2171 72.4621 26.4378C72.4318 26.4654 72.3555 26.5619 72.2338 26.7274C72.1122 26.8654 72.0358 26.9619 72.0055 27.017C71.7315 27.5135 71.5946 27.9686 71.5946 28.3824C71.5946 28.9616 71.8229 29.4305 72.2795 29.7891C72.7665 30.1476 73.3908 30.3269 74.1517 30.3269C75.1563 30.2994 76.0239 29.9822 76.7545 29.3753C77.5154 28.7409 77.896 27.9962 77.896 27.1412C77.896 26.6447 77.7744 26.1758 77.5307 25.7345C77.1351 24.9897 76.6021 24.3553 75.9325 23.8313C75.2933 23.2796 74.6693 22.728 74.0604 22.1763C73.4821 21.6247 73.0558 20.9627 72.7818 20.1904C72.6601 19.8318 72.5991 19.3905 72.5991 18.8664C72.5991 18.3424 72.6751 17.8321 72.8275 17.3356C72.9798 16.8115 73.2081 16.3702 73.5124 16.0116C73.9387 15.4876 74.578 15.0049 75.4302 14.5636C76.4958 14.0395 77.7437 13.7775 79.1746 13.7775C80.1182 13.7775 80.9555 13.8878 81.6861 14.1084C82.234 14.2739 82.706 14.5497 83.1016 14.9359C83.5279 15.2945 83.7409 15.7772 83.7409 16.384C83.7409 17.0735 83.4972 17.7355 83.0103 18.3699C82.5537 18.9767 81.8841 19.3491 81.0011 19.487C80.4532 19.5422 79.9662 19.4595 79.5399 19.2388C79.1136 18.9905 78.9616 18.5354 79.0833 17.8735C79.9052 17.708 80.4988 17.4045 80.8641 16.9632C81.0468 16.715 81.1381 16.4667 81.1381 16.2185C81.1381 15.7496 80.9251 15.4324 80.4988 15.2669C80.1032 15.0738 79.7226 14.9773 79.3573 14.9773C78.9006 14.9773 78.4593 15.0325 78.033 15.1428C77.6374 15.2255 77.2721 15.3772 76.9371 15.5979C76.2675 16.122 75.9325 16.7288 75.9325 17.4183C75.9325 17.5287 75.9479 17.6528 75.9782 17.7907C76.0392 17.9286 76.0849 18.0665 76.1152 18.2044C76.2675 18.563 76.4958 18.894 76.8001 19.1974C77.1044 19.5008 77.4091 19.7628 77.7134 19.9835C78.4743 20.48 79.2506 21.0179 80.0422 21.5971C80.8641 22.1763 81.4731 22.8797 81.8687 23.7071C82.173 24.2864 82.3253 24.8794 82.3253 25.4862C82.3253 26.3137 82.097 27.0722 81.6404 27.7618C81.1838 28.4238 80.6661 28.9478 80.0879 29.334C81.0924 28.9478 82.0667 28.2721 83.0103 27.3067C83.9845 26.3137 84.8215 25.3345 85.5217 24.3691C85.9784 23.7347 86.3893 23.1417 86.7546 22.5901C87.1503 22.0108 87.5463 21.3764 87.9419 20.6869C88.0635 20.4938 88.1702 20.3972 88.2615 20.3972C88.4442 20.3972 88.5355 20.6317 88.5355 21.1006C88.5355 21.2937 88.4898 21.5281 88.3985 21.804C88.3375 22.0798 88.2312 22.3556 88.0789 22.6314C87.5309 23.4589 87.0133 24.2312 86.5263 24.9484C86.0394 25.6379 85.4458 26.3964 84.7455 27.2239C83.3453 28.9064 81.8534 30.1063 80.2705 30.8234C78.6876 31.513 76.8155 31.8578 74.654 31.8578Z" fill="#F7F7F7"/>
<path d="M96.5232 11.1709C95.7316 10.9227 95.336 10.4538 95.336 9.76421C95.336 9.1298 95.61 8.48162 96.1579 7.81964C96.7362 7.13009 97.3605 6.68875 98.0301 6.49568C98.1824 6.44051 98.3041 6.41293 98.3954 6.41293C98.517 6.41293 98.639 6.41293 98.7607 6.41293C99.2783 6.41293 99.7043 6.55086 100.039 6.82667C100.374 7.10249 100.542 7.4197 100.542 7.77827C100.542 8.27475 100.252 8.68849 99.674 9.01948C99.2173 8.9643 98.776 9.06085 98.3497 9.30909C97.9234 9.55734 97.5431 9.86076 97.2082 10.2193C96.9039 10.5779 96.6755 10.8951 96.5232 11.1709ZM88.6692 31.2785C88.2736 31.2785 87.8929 31.1958 87.5276 31.0303C87.1623 30.8924 86.858 30.6028 86.6144 30.1615C86.2794 29.4995 86.1121 28.7134 86.1121 27.8032C86.1121 26.8102 86.2794 25.7069 86.6144 24.4933C86.9493 23.252 87.3906 21.9833 87.9386 20.6869C88.1516 20.218 88.4255 19.6387 88.7605 18.9492C89.0955 18.2596 89.4911 17.57 89.9477 16.8805C90.4044 16.1909 90.922 15.6255 91.5003 15.1842C92.1093 14.7153 92.7635 14.4808 93.4638 14.4808C93.7988 14.4808 94.2704 14.4946 94.8793 14.5222C95.4883 14.5498 95.9296 14.5498 96.2036 14.5222C96.0209 14.6325 95.8079 14.8532 95.5643 15.1842C95.3206 15.5152 95.0923 15.8599 94.8793 16.2185C94.6664 16.5495 94.4987 16.8115 94.3771 17.0046C93.5854 18.4389 92.8399 19.8594 92.1396 21.2661C91.4393 22.6728 90.9067 24.0243 90.5414 25.3207C90.4804 25.5414 90.4347 25.762 90.4044 25.9827C90.3741 26.2034 90.3587 26.4103 90.3587 26.6033C90.3587 27.4032 90.648 27.8032 91.2263 27.8032C91.47 27.8032 91.7286 27.748 92.0026 27.6377C92.3069 27.4997 92.6572 27.2929 93.0528 27.0171C93.7531 26.5206 94.3617 25.9551 94.8793 25.3207C95.4883 24.6036 96.0666 23.8451 96.6145 23.0452C97.1625 22.2177 97.6345 21.4592 98.0301 20.7696C98.1824 20.5489 98.2887 20.4386 98.3497 20.4386C98.5324 20.4386 98.6237 20.6731 98.6237 21.142C98.6237 21.3627 98.578 21.6247 98.4867 21.9281C98.4257 22.2039 98.3194 22.4659 98.1671 22.7142C97.7408 23.3762 97.2385 24.1071 96.6602 24.907C96.0819 25.7069 95.4883 26.4792 94.8793 27.2239C94.453 27.748 93.8901 28.3272 93.1898 28.9616C92.4895 29.596 91.7439 30.1477 90.9523 30.6166C90.1607 31.0579 89.3998 31.2785 88.6692 31.2785Z" fill="#F7F7F7"/>
<path d="M99.071 31.2785C98.2188 31.2785 97.5795 31.0027 97.1532 30.4511C96.7269 29.8718 96.5139 29.0995 96.5139 28.1341C96.5139 27.9962 96.5139 27.8583 96.5139 27.7204C96.5139 27.5825 96.5293 27.4446 96.5596 27.3067C96.7119 26.2585 96.9705 25.0725 97.3358 23.7485C97.7315 22.4246 98.1881 21.0317 98.7057 19.5698C99.01 18.7423 99.3907 17.708 99.8473 16.4667C100.334 15.198 100.898 13.8464 101.537 12.4121C102.176 10.9502 102.876 9.50216 103.637 8.06788C104.429 6.6336 105.297 5.33721 106.24 4.17875C107.184 2.9927 108.173 2.04111 109.208 1.32396C110.274 0.606818 111.4 0.248245 112.587 0.248245C113.562 0.248245 114.231 0.468905 114.596 0.910223C114.962 1.32396 115.144 1.82045 115.144 2.39968C115.144 3.00649 115.023 3.62709 114.779 4.2615C114.535 4.8683 114.292 5.37859 114.048 5.79232C113.501 6.78529 112.785 7.90238 111.902 9.1436C111.019 10.3848 110.091 11.5433 109.117 12.619C108.539 13.3085 107.823 14.0809 106.971 14.9359C106.118 15.791 105.312 16.5771 104.551 17.2942C103.82 18.0114 103.287 18.5079 102.952 18.7837L102.222 20.6869C102.009 21.2109 101.795 21.8315 101.583 22.5487C101.4 23.2658 101.233 23.983 101.08 24.7001C100.959 25.3897 100.852 25.9965 100.761 26.5206C100.73 26.6309 100.715 26.7412 100.715 26.8516C100.715 26.9619 100.715 27.0584 100.715 27.1412C100.715 27.9686 101.065 28.3824 101.765 28.3824C102.191 28.3824 102.724 28.2031 103.363 27.8445C103.972 27.5135 104.551 27.086 105.099 26.5619C105.677 26.0103 106.088 25.5965 106.331 25.3207C106.94 24.6036 107.519 23.8451 108.067 23.0452C108.615 22.2177 109.087 21.4592 109.482 20.7696C109.635 20.5489 109.741 20.4386 109.802 20.4386C109.984 20.4386 110.076 20.6731 110.076 21.142C110.076 21.3626 110.03 21.6247 109.939 21.9281C109.878 22.2039 109.772 22.4659 109.619 22.7142C109.193 23.3762 108.691 24.1071 108.112 24.907C107.534 25.7069 106.94 26.4792 106.331 27.2239C105.875 27.7756 105.236 28.3686 104.414 29.003C103.592 29.6374 102.709 30.1753 101.765 30.6166C100.822 31.0579 99.9233 31.2785 99.071 31.2785ZM103.866 16.4254C105.388 14.798 106.925 13.0603 108.478 11.2123C110.06 9.33666 111.37 7.43347 112.405 5.50271C112.466 5.36479 112.603 5.08897 112.816 4.67523C113.029 4.2615 113.227 3.80638 113.409 3.3099C113.592 2.78583 113.683 2.34452 113.683 1.98594C113.683 1.51704 113.485 1.28259 113.09 1.28259H112.77C112.374 1.28259 111.902 1.53083 111.354 2.02731C110.837 2.5238 110.304 3.18578 109.756 4.01325C109.056 5.0614 108.371 6.27501 107.701 7.65414C107.032 9.00567 106.377 10.44 105.738 11.957C105.099 13.474 104.475 14.9635 103.866 16.4254Z" fill="#F7F7F7"/>
<path d="M118.801 30.4511C117.4 31.113 115.924 31.444 114.371 31.444C113.062 31.444 111.844 31.1544 110.718 30.5752C109.592 29.996 108.831 29.0719 108.435 27.8031C108.252 27.2239 108.161 26.6171 108.161 25.9827C108.161 24.9346 108.359 23.8588 108.755 22.7556C109.181 21.6247 109.729 20.5903 110.399 19.6525C111.434 18.1906 112.743 16.977 114.326 16.0116C115.908 15.0462 117.659 14.5636 119.577 14.5636C121.008 14.5636 122.119 14.8945 122.91 15.5565C123.702 16.2185 124.098 16.9908 124.098 17.8735C124.098 18.9216 123.702 19.8456 122.91 20.6455C122.149 21.4178 121.145 22.0108 119.897 22.4246C119.288 22.6176 118.633 22.7694 117.933 22.8797C117.263 22.9624 116.624 23.0038 116.015 23.0038C114.767 23.0038 113.808 22.8521 113.138 22.5487C112.56 23.9002 112.271 25.1414 112.271 26.2723C112.271 27.2929 112.529 28.1341 113.047 28.7961C113.565 29.4305 114.387 29.7477 115.513 29.7477C116.456 29.7477 117.385 29.5133 118.298 29.0444C119.242 28.5754 120.109 27.9962 120.901 27.3067C121.723 26.6171 122.408 25.9551 122.956 25.3207C123.382 24.8518 123.748 24.4105 124.052 23.9968C124.356 23.583 124.676 23.1141 125.011 22.5901C125.346 22.0384 125.741 21.3626 126.198 20.5627C126.32 20.3697 126.426 20.2731 126.518 20.2731C126.7 20.2731 126.792 20.4938 126.792 20.9351C126.792 21.1833 126.746 21.4592 126.655 21.7626C126.594 22.0384 126.472 22.328 126.289 22.6314C125.863 23.321 125.346 24.0795 124.737 24.907C124.159 25.7069 123.565 26.4792 122.956 27.2239C122.408 27.8859 121.784 28.4927 121.084 29.0444C120.383 29.596 119.623 30.0649 118.801 30.4511ZM114.645 21.6385C114.798 21.7212 114.965 21.7764 115.148 21.804C115.33 21.8315 115.513 21.8453 115.696 21.8453C116.304 21.8453 116.913 21.7212 117.522 21.473C118.131 21.1972 118.648 20.9213 119.075 20.6455C119.775 20.2042 120.368 19.6801 120.855 19.0733C121.342 18.4665 121.616 17.7769 121.677 17.0046C121.708 16.6736 121.616 16.3978 121.403 16.1771C121.221 15.9289 120.886 15.8048 120.399 15.8048C120.155 15.8048 119.851 15.8461 119.486 15.9289C118.999 16.0392 118.511 16.2461 118.024 16.5495C117.537 16.8529 117.065 17.2115 116.609 17.6252C116.456 17.7631 116.182 18.0389 115.787 18.4527C115.422 18.8389 115.072 19.2802 114.737 19.7766C114.402 20.2456 114.234 20.6593 114.234 21.0179C114.234 21.3213 114.371 21.5281 114.645 21.6385Z" fill="#F7F7F7"/>
</g>
<defs>
<clipPath id="clip0_39_149">
<rect width="127" height="32" fill="white"/>
</clipPath>
</defs>
</svg>
