<svg width="30" height="30" viewBox="0 0 30 30" fill="none" xmlns="http://www.w3.org/2000/svg">
<g id="bass-svgrepo-com 1" clip-path="url(#clip0_41_321)">
<g id="Group">
<g id="Group_2">
<g id="Group_3">
<path id="Vector" d="M29.4128 1.59275C29.0306 1.21048 28.5226 1 27.9825 1C27.648 1 27.3175 1.08401 27.0267 1.24299C27.0112 1.25147 26.9961 1.26084 26.9816 1.27104L23.2382 3.89506C23.1508 3.95632 23.0863 4.04518 23.0553 4.14729L22.7745 5.0698L12.9609 14.4681L12.6831 14.1903C12.5025 14.0098 12.4046 13.7661 12.4073 13.5041C12.41 13.2383 12.5155 12.9881 12.7042 12.7993L14.3043 11.1993C14.9606 10.5429 14.9606 9.47488 14.3043 8.81851C13.9863 8.50056 13.5635 8.32545 13.1138 8.32545C12.6642 8.32545 12.2414 8.50056 11.9234 8.81851L9.19862 11.5433C8.67184 12.0701 8.0562 12.9599 7.79702 13.5691C7.35929 14.5979 6.87101 15.5311 6.68928 15.8703C6.18908 16.1032 4.44007 16.916 2.43603 17.8271C1.18977 18.3937 0.356192 19.366 0.088722 20.5647C-0.197042 21.8453 0.214808 23.2566 1.21871 24.4365L4.88717 28.7485C5.77035 29.7867 6.83984 30.3427 7.93439 30.3426C8.06181 30.3426 8.18975 30.3351 8.31762 30.3199C9.54367 30.1741 10.5972 29.346 11.2833 27.9896L13.8021 23.0527C14.1896 22.9157 15.1032 22.5911 15.637 22.3868C16.3038 22.1316 17.1868 21.4708 17.6791 20.9786C17.9969 20.6606 18.1721 20.2379 18.1721 19.7881C18.1721 19.3384 17.9969 18.9157 17.6791 18.5978C17.0227 17.9414 15.9547 17.9414 15.2983 18.5978C15.0146 18.8813 14.5532 18.8814 14.2696 18.5978L13.8957 18.2238L24.6739 6.96917L25.5964 6.68838C25.6715 6.66556 25.7398 6.62457 25.7953 6.56905L27.4261 4.93823C27.61 4.99216 27.8018 5.02007 27.9936 5.02007C28.5299 5.02007 29.0338 4.81131 29.4129 4.43229C30.1957 3.64945 30.1957 2.37566 29.4128 1.59275ZM15.9743 19.2739C16.1116 19.1366 16.2943 19.0609 16.4885 19.0609C16.6827 19.0609 16.8654 19.1366 17.0028 19.2739C17.1401 19.4113 17.2158 19.5939 17.2158 19.7882C17.2158 19.9825 17.1401 20.1651 17.0028 20.3025C16.582 20.7233 15.7954 21.3024 15.2951 21.4938C14.6315 21.7478 13.3176 22.2096 13.3044 22.2142C13.1885 22.2549 13.0928 22.3387 13.037 22.448L10.4307 27.5565C9.89298 28.6195 9.10243 29.2636 8.2046 29.3704C7.30689 29.4769 6.38713 29.0362 5.61532 28.1289L1.94686 23.8169C1.13916 22.8675 0.801953 21.758 1.02181 20.7729C1.22234 19.874 1.86514 19.1369 2.83175 18.6975C5.20207 17.6198 7.21657 16.6794 7.23665 16.67C7.32825 16.6273 7.40391 16.5566 7.4528 16.4682C7.47932 16.4202 8.10898 15.2779 8.67681 13.9434C8.888 13.447 9.43658 12.6575 9.87475 12.2194L12.5996 9.49458C12.883 9.21105 13.3446 9.21105 13.6281 9.49458C13.9117 9.77818 13.9117 10.2396 13.6281 10.5232L12.028 12.1232C11.6613 12.4899 11.4564 12.9768 11.4511 13.4943C11.4458 14.0154 11.6432 14.5027 12.0069 14.8664L12.2701 15.1296L9.49204 17.7901C9.39916 17.879 9.34606 18.0017 9.3446 18.1302C9.34326 18.2588 9.39374 18.3825 9.48458 18.4734L11.2702 20.259C11.3599 20.3487 11.4815 20.3991 11.6083 20.3991C11.61 20.3991 11.6117 20.3991 11.6134 20.3991C11.742 20.3977 11.8646 20.3446 11.9536 20.2517L13.2341 18.9146L13.5934 19.2739C14.2499 19.9303 15.3178 19.9302 15.9743 19.2739ZM11.6009 19.2375L10.5062 18.1428L23.1882 5.99746L23.7462 6.55541L11.6009 19.2375ZM28.7367 3.75622C28.5383 3.95466 28.2744 4.06398 27.9938 4.06398C27.8303 4.06398 27.6672 4.02554 27.5221 3.95287C27.338 3.86064 27.1156 3.89665 26.9699 4.04224L25.2036 5.80852L24.5503 6.0074L23.7363 5.19346L23.9219 4.58343L27.5064 2.07077C27.6518 1.99574 27.8158 1.95622 27.9824 1.95622C28.2672 1.95622 28.535 2.06726 28.7366 2.26895C29.1468 2.67895 29.1468 3.34616 28.7367 3.75622Z" fill="url(#paint0_linear_41_321)"/>
<path id="Vector_2" d="M7.94849 21.4686C7.76172 21.2818 7.45906 21.2818 7.27235 21.4686C7.08565 21.6553 7.08565 21.9579 7.27235 22.1446L8.95118 23.8234C9.04456 23.9168 9.16695 23.9635 9.28928 23.9635C9.4116 23.9635 9.53399 23.9168 9.62737 23.8234C9.81408 23.6367 9.81408 23.3341 9.62737 23.1474L7.94849 21.4686Z" fill="url(#paint1_linear_41_321)"/>
<path id="Vector_3" d="M8.06714 18.6455C7.88037 18.4588 7.57771 18.4588 7.39101 18.6455C7.2043 18.8322 7.2043 19.1348 7.39101 19.3215L9.06983 21.0004C9.16322 21.0937 9.2856 21.1404 9.40793 21.1404C9.53025 21.1404 9.65264 21.0937 9.74603 21.0004C9.93273 20.8136 9.93273 20.511 9.74603 20.3243L8.06714 18.6455Z" fill="url(#paint2_linear_41_321)"/>
<path id="Vector_4" d="M5.28868 21.0793C5.10191 20.8926 4.79925 20.8926 4.61254 21.0793L3.26034 22.4315C3.17072 22.5211 3.12036 22.6427 3.12036 22.7695C3.12036 22.8963 3.17072 23.0179 3.26034 23.1076L5.96481 25.812C6.05819 25.9054 6.18058 25.952 6.3029 25.952C6.42523 25.952 6.54762 25.9054 6.641 25.812L7.9932 24.4598C8.08283 24.3701 8.13318 24.2485 8.13318 24.1217C8.13318 23.9949 8.08283 23.8733 7.9932 23.7837L5.28868 21.0793ZM6.30284 24.7979L4.27451 22.7695L4.95058 22.0935L6.97891 24.1218L6.30284 24.7979Z" fill="url(#paint3_linear_41_321)"/>
</g>
</g>
</g>
</g>
<defs>
<linearGradient id="paint0_linear_41_321" x1="15" y1="1" x2="15" y2="30.3426" gradientUnits="userSpaceOnUse">
<stop stop-color="#E6A40B"/>
<stop offset="1" stop-color="#FF9900"/>
</linearGradient>
<linearGradient id="paint1_linear_41_321" x1="8.44986" y1="21.3285" x2="8.44986" y2="23.9635" gradientUnits="userSpaceOnUse">
<stop stop-color="#E6A40B"/>
<stop offset="1" stop-color="#FF9900"/>
</linearGradient>
<linearGradient id="paint2_linear_41_321" x1="8.56852" y1="18.5054" x2="8.56852" y2="21.1404" gradientUnits="userSpaceOnUse">
<stop stop-color="#E6A40B"/>
<stop offset="1" stop-color="#FF9900"/>
</linearGradient>
<linearGradient id="paint3_linear_41_321" x1="5.62677" y1="20.9393" x2="5.62677" y2="25.952" gradientUnits="userSpaceOnUse">
<stop stop-color="#E6A40B"/>
<stop offset="1" stop-color="#FF9900"/>
</linearGradient>
<clipPath id="clip0_41_321">
<rect width="30" height="30" fill="white"/>
</clipPath>
</defs>
</svg>
