<svg width="32" height="32" viewBox="0 0 32 32" fill="none" xmlns="http://www.w3.org/2000/svg">
<g id="facebook" clip-path="url(#clip0_47_560)">
<path id="Vector" d="M32.0001 16.0999C32.0001 7.20794 24.8361 -6.10352e-05 16.0001 -6.10352e-05C7.16009 0.00193896 -0.00390625 7.20794 -0.00390625 16.1019C-0.00390625 24.1359 5.84809 30.7959 13.4961 32.0039V20.7539H9.43609V16.1019H13.5001V12.5519C13.5001 8.51794 15.8901 6.28994 19.5441 6.28994C21.2961 6.28994 23.1261 6.60394 23.1261 6.60394V10.5639H21.1081C19.1221 10.5639 18.5021 11.8059 18.5021 13.0799V16.0999H22.9381L22.2301 20.7519H18.5001V32.0019C26.1481 30.7939 32.0001 24.1339 32.0001 16.0999Z" fill="url(#paint0_linear_47_560)"/>
</g>
<defs>
<linearGradient id="paint0_linear_47_560" x1="15.9981" y1="-6.10352e-05" x2="15.9981" y2="32.0039" gradientUnits="userSpaceOnUse">
<stop stop-color="#E6A40B"/>
<stop offset="1" stop-color="#FF9900"/>
</linearGradient>
<clipPath id="clip0_47_560">
<rect width="32" height="32" fill="white"/>
</clipPath>
</defs>
</svg>
