<svg width="32" height="32" viewBox="0 0 32 32" fill="none" xmlns="http://www.w3.org/2000/svg">
<g id="facebook" clip-path="url(#clip0_37_136)">
<path id="Vector" d="M32 16.1C32 7.208 24.836 0 16 0C7.15997 0.002 -0.00402832 7.208 -0.00402832 16.102C-0.00402832 24.136 5.84797 30.796 13.496 32.004V20.754H9.43597V16.102H13.5V12.552C13.5 8.518 15.89 6.29 19.544 6.29C21.296 6.29 23.126 6.604 23.126 6.604V10.564H21.108C19.122 10.564 18.502 11.806 18.502 13.08V16.1H22.938L22.23 20.752H18.5V32.002C26.148 30.794 32 24.134 32 16.1Z" fill="white"/>
</g>
<defs>
<clipPath id="clip0_37_136">
<rect width="32" height="32" fill="white"/>
</clipPath>
</defs>
</svg>
