<svg width="28" height="28" viewBox="0 0 28 28" fill="none" xmlns="http://www.w3.org/2000/svg">
<g id="iconmonstr-sound-wave-4 1" clip-path="url(#clip0_41_329)">
<path id="Vector" d="M21.6837 11.7612C20.0048 11.7612 20.1087 15.0302 19.3165 16.5107C19.1835 16.7568 18.8207 16.7253 18.7332 16.4593C17.8337 13.7013 18.2443 7 15.8048 7C13.251 7 13.8822 15.6718 12.8882 19.2057C12.8147 19.474 12.4437 19.4973 12.3352 19.2383C11.2852 16.7172 11.403 11.2175 9.41617 11.2175C7.3605 11.2175 7.5355 15.8247 6.7305 17.6808C6.62433 17.9293 6.27317 17.9375 6.15533 17.6925C5.5685 16.4687 5.38067 14 3.164 14H0.582167C0.261333 14 0 14.2613 0 14.5822C0 14.903 0.261333 15.1667 0.582167 15.1667H3.164C4.998 15.1667 4.375 19.2313 6.49367 19.2313C8.45833 19.2313 8.246 14.8097 9.08717 12.8497C9.18983 12.607 9.53283 12.614 9.63083 12.8567C10.57 15.2448 10.5525 21 12.712 21C15.1352 21 14.2718 11.8347 15.5622 8.60883C15.659 8.36267 16.0102 8.34983 16.121 8.59483C17.3215 11.2198 16.6892 18.0752 18.8557 18.0752C20.7678 18.0752 20.8822 14.9182 21.4573 13.3642C21.5518 13.1168 21.8925 13.0993 22.0103 13.3327C22.6123 14.5005 22.9973 16.3333 24.8103 16.3333H27.4178C27.7387 16.3333 28 16.072 28 15.7512C28 15.4292 27.7387 15.1678 27.4178 15.1678H24.8103C23.2668 15.1678 23.5072 11.7612 21.6837 11.7612Z" fill="url(#paint0_linear_41_329)"/>
</g>
<defs>
<linearGradient id="paint0_linear_41_329" x1="14" y1="7" x2="14" y2="21" gradientUnits="userSpaceOnUse">
<stop stop-color="#E6A40B"/>
<stop offset="1" stop-color="#FF9900"/>
</linearGradient>
<clipPath id="clip0_41_329">
<rect width="28" height="28" fill="white"/>
</clipPath>
</defs>
</svg>
