<svg width="27" height="27" viewBox="0 0 27 27" fill="none" xmlns="http://www.w3.org/2000/svg">
<path d="M21.4076 14.625H24.75L24.4507 15.75H21.0848L21.4076 14.625ZM22.3785 11.25H25.542L25.875 10.125H22.7014L22.3785 11.25ZM21.7305 13.5H26.6659L27 12.375H22.0545L21.7305 13.5ZM24.75 3.375L23.9141 5.625H21.744L17.8358 19.125H5.19187L0 6.75H16.6635L16.029 9H3.384L6.68925 16.875H16.1707L20.0317 3.375H24.75ZM8.4375 20.25C7.506 20.25 6.75 21.006 6.75 21.9375C6.75 22.8701 7.506 23.625 8.4375 23.625C9.369 23.625 10.125 22.8701 10.125 21.9375C10.125 21.006 9.369 20.25 8.4375 20.25ZM14.0625 20.25C13.131 20.25 12.375 21.0049 12.375 21.9375C12.375 22.8701 13.131 23.625 14.0625 23.625C14.994 23.625 15.75 22.8701 15.75 21.9375C15.75 21.006 14.994 20.25 14.0625 20.25Z" fill="white"/>
</svg>
