<svg width="28" height="28" viewBox="0 0 28 28" fill="none" xmlns="http://www.w3.org/2000/svg">
<g id="iconmonstr-location-25 1">
<path id="Vector" d="M14 1.83789C10.3273 1.83789 7 4.81639 7 8.49022C7 12.1629 10.0357 16.5484 14 22.8379C17.9643 16.5484 21 12.1629 21 8.49022C21 4.81639 17.6738 1.83789 14 1.83789ZM14 11.1712C12.7108 11.1712 11.6667 10.1271 11.6667 8.83789C11.6667 7.54872 12.7108 6.50456 14 6.50456C15.2892 6.50456 16.3333 7.54872 16.3333 8.83789C16.3333 10.1271 15.2892 11.1712 14 11.1712ZM23.3333 18.1712H19.6758C19.2267 18.9191 18.7448 19.6984 18.2385 20.5046H21.8913L22.4747 21.6712H17.5L17.0987 22.3059L16.7615 22.8379H17.4125L18.4135 25.1712H9.6775L10.6785 22.8379H11.2373L10.9002 22.3059L10.5 21.6712H8.11767L6.93817 20.5046H9.7615C9.254 19.6984 8.77217 18.9191 8.32417 18.1712H4.66667L0 27.5046H28L23.3333 18.1712ZM8.407 25.1712H3.77533L5.83333 21.0552L7.602 22.8379H9.40917L8.407 25.1712ZM18.683 22.8379H23.058L24.2247 25.1712H19.684L18.683 22.8379Z" fill="url(#paint0_linear_47_312)"/>
</g>
<defs>
<linearGradient id="paint0_linear_47_312" x1="14" y1="1.83789" x2="14" y2="27.5046" gradientUnits="userSpaceOnUse">
<stop stop-color="#E6A40B"/>
<stop offset="1" stop-color="#FF9900"/>
</linearGradient>
</defs>
</svg>
