<svg width="48" height="48" viewBox="0 0 48 48" fill="none" xmlns="http://www.w3.org/2000/svg">
<g id="iconmonstr-calendar-9 1" clip-path="url(#clip0_47_301)">
<path id="Vector" d="M34 6V2C34 0.896 34.894 0 36 0C37.106 0 38 0.896 38 2V6C38 7.104 37.106 8 36 8C34.894 8 34 7.104 34 6ZM10 8C11.106 8 12 7.104 12 6V2C12 0.896 11.106 0 10 0C8.894 0 8 0.896 8 2V6C8 7.104 8.894 8 10 8ZM36 34V28H34V36H40V34H36ZM26 35C26 39.962 30.038 44 35 44C39.962 44 44 39.962 44 35C44 30.038 39.962 26 35 26C30.038 26 26 30.038 26 35ZM48 35C48 42.18 42.18 48 35 48C27.82 48 22 42.18 22 35C22 27.82 27.82 22 35 22C42.18 22 48 27.82 48 35ZM19.526 42H4V16H42V19.526C43.454 20.186 44.798 21.04 46 22.062V4H40V6C40 8.632 37.444 10.678 34.684 9.788C33.022 9.252 32 7.566 32 5.82V4H14V6C14 8.632 11.444 10.678 8.684 9.788C7.022 9.252 6 7.566 6 5.82V4H0V46H22.062C21.04 44.798 20.186 43.454 19.526 42Z" fill="#FFCC00"/>
</g>
<defs>
<clipPath id="clip0_47_301">
<rect width="48" height="48" fill="white"/>
</clipPath>
</defs>
</svg>
