<svg width="24" height="24" viewBox="0 0 24 24" fill="none" xmlns="http://www.w3.org/2000/svg">
<g id="iconmonstr-ice-hockey-1 1" clip-path="url(#clip0_41_331)">
<path id="Vector" fill-rule="evenodd" clip-rule="evenodd" d="M11.779 15.729C7.83102 15.729 2.92702 14.726 -0.000976562 12.115V15C-0.000976562 18.42 5.15802 21 12 21C18.841 21 24 18.42 24 15V11.701C21.282 14.064 16.391 15.729 11.779 15.729ZM0.0270234 8.709C0.312023 5.436 5.35502 3 12 3C18.561 3 23.562 5.376 23.961 8.588C22.93 11.021 17.493 13.729 11.779 13.729C6.39602 13.729 0.856023 11.716 0.0270234 8.709Z" fill="url(#paint0_linear_41_331)"/>
</g>
<defs>
<linearGradient id="paint0_linear_41_331" x1="11.9995" y1="3" x2="11.9995" y2="21" gradientUnits="userSpaceOnUse">
<stop stop-color="#E6A40B"/>
<stop offset="1" stop-color="#FF9900"/>
</linearGradient>
<clipPath id="clip0_41_331">
<rect width="24" height="24" fill="white"/>
</clipPath>
</defs>
</svg>
