<svg width="32" height="32" viewBox="0 0 32 32" fill="none" xmlns="http://www.w3.org/2000/svg">
<g clip-path="url(#clip0_49_605)">
<circle cx="16" cy="16" r="16" fill="white"/>
<g clip-path="url(#clip1_49_605)">
<path d="M27.5302 5.27419C27.2245 4.96837 26.8181 4.79999 26.386 4.79999C26.1184 4.79999 25.854 4.8672 25.6213 4.99438C25.6089 5.00116 25.5969 5.00866 25.5853 5.01682L22.5906 7.11603C22.5206 7.16504 22.4691 7.23613 22.4442 7.31782L22.2196 8.05582L14.3687 15.5745L14.1464 15.3523C14.002 15.2078 13.9237 15.0129 13.9258 14.8032C13.928 14.5906 14.0124 14.3904 14.1634 14.2394L15.4434 12.9594C15.9685 12.4343 15.9685 11.5799 15.4434 11.0548C15.189 10.8004 14.8508 10.6604 14.4911 10.6604C14.1314 10.6604 13.7931 10.8004 13.5387 11.0548L11.3589 13.2346C10.9375 13.6561 10.445 14.3679 10.2376 14.8553C9.88743 15.6783 9.49681 16.4249 9.35142 16.6962C8.95126 16.8826 7.55206 17.5328 5.94882 18.2617C4.95182 18.715 4.28495 19.4928 4.07098 20.4517C3.84237 21.4762 4.17185 22.6053 4.97497 23.5492L7.90974 26.9988C8.61628 27.8293 9.47187 28.2741 10.3475 28.2741C10.4495 28.2741 10.5518 28.2681 10.6541 28.2559C11.6349 28.1393 12.4778 27.4768 13.0266 26.3916L15.0417 22.4421C15.3517 22.3326 16.0825 22.0729 16.5096 21.9094C17.0431 21.7053 17.7495 21.1766 18.1432 20.7828C18.3976 20.5285 18.5377 20.1903 18.5377 19.8305C18.5377 19.4707 18.3976 19.1325 18.1432 18.8782C17.6181 18.3531 16.7637 18.3531 16.2386 18.8782C16.0117 19.105 15.6426 19.1051 15.4157 18.8782L15.1165 18.579L23.7391 9.57533L24.4771 9.35069C24.5372 9.33244 24.5918 9.29965 24.6362 9.25523L25.9409 7.95057C26.088 7.99371 26.2414 8.01605 26.3949 8.01605C26.8239 8.01605 27.2271 7.84904 27.5303 7.54582C28.1566 6.91955 28.1566 5.90051 27.5302 5.27419ZM16.7794 19.4191C16.8893 19.3092 17.0354 19.2487 17.1908 19.2487C17.3462 19.2487 17.4923 19.3092 17.6022 19.4191C17.7121 19.529 17.7727 19.6751 17.7727 19.8306C17.7727 19.986 17.7121 20.1321 17.6022 20.242C17.2656 20.5786 16.6363 21.0419 16.2361 21.195C15.7052 21.3982 14.6541 21.7677 14.6435 21.7714C14.5508 21.8039 14.4742 21.8709 14.4296 21.9584L12.3446 26.0452C11.9144 26.8956 11.2819 27.4109 10.5637 27.4963C9.84551 27.5815 9.10971 27.229 8.49226 26.5031L5.55749 23.0535C4.91133 22.294 4.64156 21.4064 4.81744 20.6183C4.97788 19.8992 5.49211 19.3095 6.2654 18.958C8.16166 18.0958 9.77325 17.3435 9.78932 17.336C9.8626 17.3018 9.92313 17.2453 9.96224 17.1745C9.98346 17.1361 10.4872 16.2223 10.9415 15.1547C11.1104 14.7576 11.5493 14.126 11.8998 13.7755L14.0796 11.5957C14.3064 11.3688 14.6757 11.3688 14.9024 11.5957C15.1293 11.8225 15.1293 12.1916 14.9024 12.4185L13.6224 13.6985C13.329 13.9919 13.1651 14.3815 13.1609 14.7954C13.1566 15.2123 13.3146 15.6021 13.6055 15.8931L13.8161 16.1037L11.5936 18.2321C11.5193 18.3032 11.4768 18.4013 11.4757 18.5042C11.4746 18.607 11.515 18.706 11.5877 18.7787L13.0161 20.2072C13.0879 20.279 13.1852 20.3192 13.2866 20.3192C13.288 20.3192 13.2894 20.3192 13.2907 20.3192C13.3936 20.3181 13.4917 20.2756 13.5629 20.2013L14.5872 19.1317L14.8748 19.4191C15.3999 19.9442 16.2543 19.9442 16.7794 19.4191ZM13.2807 19.39L12.405 18.5142L22.5505 8.79796L22.997 9.24432L13.2807 19.39ZM26.9894 7.00497C26.8306 7.16372 26.6196 7.25117 26.395 7.25117C26.2642 7.25117 26.1337 7.22042 26.0177 7.16229C25.8704 7.0885 25.6925 7.11731 25.5759 7.23378L24.1629 8.64681L23.6402 8.80591L22.989 8.15476L23.1376 7.66673L26.0051 5.6566C26.1214 5.59658 26.2526 5.56497 26.3859 5.56497C26.6137 5.56497 26.828 5.6538 26.9893 5.81515C27.3174 6.14315 27.3174 6.67692 26.9894 7.00497Z" fill="url(#paint0_linear_49_605)"/>
<path d="M10.359 21.1748C10.2096 21.0255 9.96744 21.0255 9.81808 21.1748C9.66871 21.3242 9.66871 21.5663 9.81808 21.7157L11.1611 23.0587C11.2358 23.1335 11.3338 23.1708 11.4316 23.1708C11.5295 23.1708 11.6274 23.1335 11.7021 23.0587C11.8515 22.9094 11.8515 22.6673 11.7021 22.5179L10.359 21.1748Z" fill="url(#paint1_linear_49_605)"/>
<path d="M10.4537 18.9163C10.3043 18.767 10.0622 18.767 9.9128 18.9163C9.76344 19.0657 9.76344 19.3078 9.9128 19.4572L11.2559 20.8003C11.3306 20.875 11.4285 20.9123 11.5263 20.9123C11.6242 20.9123 11.7221 20.875 11.7968 20.8003C11.9462 20.6509 11.9462 20.4088 11.7968 20.2594L10.4537 18.9163Z" fill="url(#paint2_linear_49_605)"/>
<path d="M8.23074 20.8634C8.08133 20.7141 7.8392 20.7141 7.68984 20.8634L6.60808 21.9452C6.53638 22.0169 6.49609 22.1142 6.49609 22.2156C6.49609 22.317 6.53638 22.4143 6.60808 22.486L8.77165 24.6496C8.84636 24.7243 8.94427 24.7616 9.04213 24.7616C9.13999 24.7616 9.2379 24.7243 9.31261 24.6496L10.3944 23.5678C10.4661 23.4961 10.5064 23.3988 10.5064 23.2974C10.5064 23.1959 10.4661 23.0986 10.3944 23.0269L8.23074 20.8634ZM9.04208 23.8383L7.41941 22.2156L7.96027 21.6748L9.58293 23.2974L9.04208 23.8383Z" fill="url(#paint3_linear_49_605)"/>
</g>
</g>
<defs>
<linearGradient id="paint0_linear_49_605" x1="16" y1="4.79999" x2="16" y2="28.2741" gradientUnits="userSpaceOnUse">
<stop stop-color="#E6A40B"/>
<stop offset="1" stop-color="#FF9900"/>
</linearGradient>
<linearGradient id="paint1_linear_49_605" x1="10.7601" y1="21.0628" x2="10.7601" y2="23.1708" gradientUnits="userSpaceOnUse">
<stop stop-color="#E6A40B"/>
<stop offset="1" stop-color="#FF9900"/>
</linearGradient>
<linearGradient id="paint2_linear_49_605" x1="10.8548" y1="18.8043" x2="10.8548" y2="20.9123" gradientUnits="userSpaceOnUse">
<stop stop-color="#E6A40B"/>
<stop offset="1" stop-color="#FF9900"/>
</linearGradient>
<linearGradient id="paint3_linear_49_605" x1="8.50122" y1="20.7514" x2="8.50122" y2="24.7616" gradientUnits="userSpaceOnUse">
<stop stop-color="#E6A40B"/>
<stop offset="1" stop-color="#FF9900"/>
</linearGradient>
<clipPath id="clip0_49_605">
<rect width="32" height="32" fill="white"/>
</clipPath>
<clipPath id="clip1_49_605">
<rect width="24" height="24" fill="white" transform="translate(4 4)"/>
</clipPath>
</defs>
</svg>
