<svg width="356" height="99" viewBox="0 0 356 99" fill="none" xmlns="http://www.w3.org/2000/svg">
<path d="M9.76 92.544C8.65066 91.6053 7.88266 90.4533 7.456 89.088C7.02933 87.7227 6.816 86.2293 6.816 84.608C6.816 83.584 6.85866 82.56 6.944 81.536C7.11466 80.4267 7.28533 79.3173 7.456 78.208C8.13866 74.7947 9.29066 70.7413 10.912 66.048C12.6187 61.3547 14.5387 56.448 16.672 51.328C18.8907 46.208 21.1093 41.2587 23.328 36.48C25.632 31.616 27.68 27.3493 29.472 23.68C31.3493 19.9253 32.7573 17.152 33.696 15.36C34.0373 14.6773 34.336 14.0373 34.592 13.44C34.9333 12.8427 35.2747 12.288 35.616 11.776L31.008 12.416C27.168 12.928 23.2 13.7387 19.104 14.848C15.0933 15.9573 11.4667 17.408 8.224 19.2C5.06666 20.9067 2.76266 22.9973 1.312 25.472C1.22666 25.728 1.056 25.856 0.799998 25.856C0.629331 25.856 0.501331 25.6853 0.415998 25.344C0.245331 25.0027 0.202664 24.6187 0.287997 24.192C1.14133 21.9733 2.208 19.84 3.488 17.792C4.768 15.744 6.00533 14.1227 7.2 12.928C9.07733 10.9653 11.6373 9.55733 14.88 8.704C18.1227 7.85067 21.4507 7.296 24.864 7.04C28.3627 6.784 31.3493 6.65601 33.824 6.65601H59.04C64.928 6.65601 69.6213 7.552 73.12 9.344C76.704 11.136 79.264 13.5253 80.8 16.512C82.336 19.4133 82.9333 22.528 82.592 25.856C82.2507 29.44 81.2267 32.5547 79.52 35.2C77.8133 37.8453 75.68 40.1067 73.12 41.984C70.6453 43.776 68.0427 45.2267 65.312 46.336C62.6667 47.36 60.192 48.128 57.888 48.64C65.056 50.0053 70.176 52.352 73.248 55.68C76.32 59.008 77.856 62.976 77.856 67.584C77.856 71.2533 76.96 74.7093 75.168 77.952C73.4613 81.1093 71.1147 83.968 68.128 86.528C65.568 88.7467 62.1973 90.752 58.016 92.544C53.8347 94.2507 49.312 95.616 44.448 96.64C39.584 97.664 34.7627 98.176 29.984 98.176C25.9733 98.176 22.176 97.7067 18.592 96.768C15.008 95.9147 12.064 94.5067 9.76 92.544ZM25.376 92.544C26.5707 92.7147 27.7653 92.8427 28.96 92.928C30.1547 93.0133 31.3493 93.056 32.544 93.056C36.7253 93.056 40.8213 92.4587 44.832 91.264C48.8427 89.984 52.3413 87.9787 55.328 85.248C58.4 82.5173 60.576 78.9333 61.856 74.496C62.624 72.0213 63.008 69.504 63.008 66.944C63.008 62.9333 61.984 59.3493 59.936 56.192C57.9733 52.9493 54.8587 51.072 50.592 50.56C49.6533 50.816 48.2453 51.1147 46.368 51.456C44.4907 51.7973 42.528 52.096 40.48 52.352C38.432 52.608 36.6827 52.736 35.232 52.736C33.8667 52.736 33.184 52.4373 33.184 51.84C33.184 51.328 33.568 50.7307 34.336 50.048C35.104 49.28 35.9573 48.64 36.896 48.128C37.8347 47.5307 38.6027 47.1893 39.2 47.104C40.736 46.848 42.528 46.72 44.576 46.72C45.6853 46.72 46.7947 46.7627 47.904 46.848C49.0987 46.9333 50.336 47.0613 51.616 47.232C54.3467 46.3787 56.608 45.2267 58.4 43.776C60.192 42.3253 61.728 40.96 63.008 39.68C65.056 37.5467 66.6347 35.1147 67.744 32.384C68.8533 29.568 69.408 26.8373 69.408 24.192C69.408 20.6933 68.5547 18.0053 66.848 16.128C65.2267 14.1653 63.0507 12.7573 60.32 11.904C57.5893 11.0507 54.6453 10.5813 51.488 10.496C49.952 12.544 48.3307 14.976 46.624 17.792C45.0027 20.5227 43.4667 23.3387 42.016 26.24C40.5653 29.1413 39.2853 31.8293 38.176 34.304C35.7867 39.424 33.2693 45.0133 30.624 51.072C28.064 57.1307 25.9307 63.0187 24.224 68.736C23.3707 71.3813 22.5173 74.24 21.664 77.312C20.896 80.2987 20.512 82.9867 20.512 85.376C20.512 87.2533 20.8533 88.832 21.536 90.112C22.2187 91.392 23.4987 92.2027 25.376 92.544Z" fill="#181818"/>
<path d="M122.407 96.768C119.762 96.768 117.927 95.744 116.903 93.696C115.964 91.648 115.495 89.1307 115.495 86.144C115.495 83.4133 115.751 80.7253 116.263 78.08C116.519 76.8853 116.775 75.6907 117.031 74.496C117.372 73.216 117.756 71.8933 118.183 70.528C116.732 73.1733 115.196 75.7333 113.575 78.208C112.039 80.6827 110.46 82.8587 108.839 84.736C106.108 88.064 103.207 90.8373 100.135 93.056C97.1483 95.2747 94.1617 96.384 91.175 96.384C88.7857 96.384 86.7377 95.5307 85.031 93.824C83.4097 92.032 82.599 88.96 82.599 84.608C82.599 80.1707 83.367 75.6053 84.903 70.912C86.439 66.2187 88.5723 61.8667 91.303 57.856C94.119 53.76 97.4043 50.4747 101.159 48C104.999 45.5253 109.18 44.288 113.703 44.288C115.154 44.288 116.732 44.5013 118.439 44.928C120.146 45.3547 121.724 46.1653 123.175 47.36C124.626 48.4693 125.607 50.048 126.119 52.096C126.204 51.9253 126.29 51.7973 126.375 51.712C126.546 51.6267 126.674 51.5413 126.759 51.456C127.954 49.5787 129.319 48 130.855 46.72C132.391 45.44 134.098 44.8 135.975 44.8C136.914 44.8 138.236 44.8427 139.943 44.928C141.65 45.0133 142.887 45.0133 143.655 44.928C143.228 45.2693 142.631 45.952 141.863 46.976C141.18 48 140.54 49.0667 139.943 50.176C139.346 51.2 138.876 52.0107 138.535 52.608C136.231 57.0453 134.14 61.44 132.263 65.792C130.386 70.144 128.935 74.3253 127.911 78.336C127.655 79.1893 127.484 80 127.399 80.768C127.314 81.4507 127.271 82.1333 127.271 82.816C127.271 85.0347 127.996 86.144 129.447 86.144C130.812 86.144 132.519 85.2907 134.567 83.584C137.554 81.1947 140.156 78.208 142.375 74.624C144.679 71.04 146.684 67.584 148.391 64.256C148.732 63.6587 149.031 63.36 149.287 63.36C149.799 63.36 150.055 64.0853 150.055 65.536C150.055 66.2187 149.927 66.9867 149.671 67.84C149.5 68.6933 149.202 69.504 148.775 70.272C147.58 72.32 146.002 74.8373 144.039 77.824C142.162 80.8107 140.028 83.7547 137.639 86.656C135.25 89.472 132.732 91.8613 130.087 93.824C127.527 95.7867 124.967 96.768 122.407 96.768ZM96.935 85.632C97.191 85.7173 97.575 85.76 98.087 85.76C99.7083 85.76 101.458 85.0773 103.335 83.712C105.212 82.3467 107.09 80.5973 108.967 78.464C110.844 76.2453 112.508 74.0267 113.959 71.808C117.714 65.8347 120.487 61.3547 122.279 58.368C124.071 55.3813 125.095 53.6747 125.351 53.248C124.924 51.7973 124.156 50.7307 123.047 50.048C122.023 49.3653 120.786 49.024 119.335 49.024C117.458 49.024 115.452 49.536 113.319 50.56C111.271 51.584 109.522 52.8213 108.071 54.272C105.852 56.4907 103.719 59.3493 101.671 62.848C99.7083 66.3467 98.087 69.8027 96.807 73.216C95.6123 76.6293 95.015 79.488 95.015 81.792C95.015 83.9253 95.655 85.2053 96.935 85.632Z" fill="#181818"/>
<path d="M160.251 98.56C157.35 98.56 154.619 98.176 152.059 97.408C149.499 96.64 147.408 95.4453 145.787 93.824C144.166 92.2027 143.355 90.1547 143.355 87.68C143.355 85.8027 143.91 83.968 145.019 82.176C146.214 80.384 147.878 79.488 150.011 79.488C150.95 79.488 151.803 79.7013 152.571 80.128C153.339 80.5547 153.851 81.1093 154.107 81.792C154.022 81.8773 153.808 82.176 153.467 82.688C153.126 83.1147 152.912 83.4133 152.827 83.584C152.059 85.12 151.675 86.528 151.675 87.808C151.675 89.6 152.315 91.0507 153.595 92.16C154.96 93.2693 156.71 93.824 158.843 93.824C161.659 93.7387 164.091 92.7573 166.139 90.88C168.272 88.9173 169.339 86.6133 169.339 83.968C169.339 82.432 168.998 80.9813 168.315 79.616C167.206 77.312 165.712 75.3493 163.835 73.728C162.043 72.0213 160.294 70.3147 158.587 68.608C156.966 66.9013 155.771 64.8533 155.003 62.464C154.662 61.3547 154.491 59.9893 154.491 58.368C154.491 56.7467 154.704 55.168 155.131 53.632C155.558 52.0107 156.198 50.6453 157.051 49.536C158.246 47.9147 160.038 46.4213 162.427 45.056C165.414 43.4347 168.912 42.624 172.923 42.624C175.568 42.624 177.915 42.9653 179.963 43.648C181.499 44.16 182.822 45.0133 183.931 46.208C185.126 47.3173 185.723 48.8107 185.723 50.688C185.723 52.8213 185.04 54.8693 183.675 56.832C182.395 58.7093 180.518 59.8613 178.043 60.288C176.507 60.4587 175.142 60.2027 173.947 59.52C172.752 58.752 172.326 57.344 172.667 55.296C174.971 54.784 176.635 53.8453 177.659 52.48C178.171 51.712 178.427 50.944 178.427 50.176C178.427 48.7253 177.83 47.744 176.635 47.232C175.526 46.6347 174.459 46.336 173.435 46.336C172.155 46.336 170.918 46.5067 169.723 46.848C168.614 47.104 167.59 47.5733 166.651 48.256C164.774 49.8773 163.835 51.7547 163.835 53.888C163.835 54.2293 163.878 54.6133 163.963 55.04C164.134 55.4667 164.262 55.8933 164.347 56.32C164.774 57.4293 165.414 58.4533 166.267 59.392C167.12 60.3307 167.974 61.1413 168.827 61.824C170.96 63.36 173.136 65.024 175.355 66.816C177.659 68.608 179.366 70.784 180.475 73.344C181.328 75.136 181.755 76.9707 181.755 78.848C181.755 81.408 181.115 83.7547 179.835 85.888C178.555 87.936 177.104 89.5573 175.483 90.752C178.299 89.5573 181.03 87.4667 183.675 84.48C186.406 81.408 188.752 78.3787 190.715 75.392C191.995 73.4293 193.147 71.5947 194.171 69.888C195.28 68.096 196.39 66.1333 197.499 64C197.84 63.4027 198.139 63.104 198.395 63.104C198.907 63.104 199.163 63.8293 199.163 65.28C199.163 65.8773 199.035 66.6027 198.779 67.456C198.608 68.3093 198.31 69.1627 197.883 70.016C196.347 72.576 194.896 74.9653 193.531 77.184C192.166 79.3173 190.502 81.664 188.539 84.224C184.614 89.4293 180.432 93.1413 175.995 95.36C171.558 97.4933 166.31 98.56 160.251 98.56Z" fill="#181818"/>
<path d="M209.266 98.56C206.365 98.56 203.634 98.176 201.074 97.408C198.514 96.64 196.423 95.4453 194.802 93.824C193.181 92.2027 192.37 90.1547 192.37 87.68C192.37 85.8027 192.925 83.968 194.034 82.176C195.229 80.384 196.893 79.488 199.026 79.488C199.965 79.488 200.818 79.7013 201.586 80.128C202.354 80.5547 202.866 81.1093 203.122 81.792C203.037 81.8773 202.823 82.176 202.482 82.688C202.141 83.1147 201.927 83.4133 201.842 83.584C201.074 85.12 200.69 86.528 200.69 87.808C200.69 89.6 201.33 91.0507 202.61 92.16C203.975 93.2693 205.725 93.824 207.858 93.824C210.674 93.7387 213.106 92.7573 215.154 90.88C217.287 88.9173 218.354 86.6133 218.354 83.968C218.354 82.432 218.013 80.9813 217.33 79.616C216.221 77.312 214.727 75.3493 212.85 73.728C211.058 72.0213 209.309 70.3147 207.602 68.608C205.981 66.9013 204.786 64.8533 204.018 62.464C203.677 61.3547 203.506 59.9893 203.506 58.368C203.506 56.7467 203.719 55.168 204.146 53.632C204.573 52.0107 205.213 50.6453 206.066 49.536C207.261 47.9147 209.053 46.4213 211.442 45.056C214.429 43.4347 217.927 42.624 221.938 42.624C224.583 42.624 226.93 42.9653 228.978 43.648C230.514 44.16 231.837 45.0133 232.946 46.208C234.141 47.3173 234.738 48.8107 234.738 50.688C234.738 52.8213 234.055 54.8693 232.69 56.832C231.41 58.7093 229.533 59.8613 227.058 60.288C225.522 60.4587 224.157 60.2027 222.962 59.52C221.767 58.752 221.341 57.344 221.682 55.296C223.986 54.784 225.65 53.8453 226.674 52.48C227.186 51.712 227.442 50.944 227.442 50.176C227.442 48.7253 226.845 47.744 225.65 47.232C224.541 46.6347 223.474 46.336 222.45 46.336C221.17 46.336 219.933 46.5067 218.738 46.848C217.629 47.104 216.605 47.5733 215.666 48.256C213.789 49.8773 212.85 51.7547 212.85 53.888C212.85 54.2293 212.893 54.6133 212.978 55.04C213.149 55.4667 213.277 55.8933 213.362 56.32C213.789 57.4293 214.429 58.4533 215.282 59.392C216.135 60.3307 216.989 61.1413 217.842 61.824C219.975 63.36 222.151 65.024 224.37 66.816C226.674 68.608 228.381 70.784 229.49 73.344C230.343 75.136 230.77 76.9707 230.77 78.848C230.77 81.408 230.13 83.7547 228.85 85.888C227.57 87.936 226.119 89.5573 224.498 90.752C227.314 89.5573 230.045 87.4667 232.69 84.48C235.421 81.408 237.767 78.3787 239.73 75.392C241.01 73.4293 242.162 71.5947 243.186 69.888C244.295 68.096 245.405 66.1333 246.514 64C246.855 63.4027 247.154 63.104 247.41 63.104C247.922 63.104 248.178 63.8293 248.178 65.28C248.178 65.8773 248.05 66.6027 247.794 67.456C247.623 68.3093 247.325 69.1627 246.898 70.016C245.362 72.576 243.911 74.9653 242.546 77.184C241.181 79.3173 239.517 81.664 237.554 84.224C233.629 89.4293 229.447 93.1413 225.01 95.36C220.573 97.4933 215.325 98.56 209.266 98.56Z" fill="#181818"/>
<path d="M270.569 34.56C268.35 33.792 267.241 32.3413 267.241 30.208C267.241 28.2453 268.009 26.24 269.545 24.192C271.166 22.0587 272.916 20.6933 274.793 20.096C275.22 19.9253 275.561 19.84 275.817 19.84C276.158 19.84 276.5 19.84 276.841 19.84C278.292 19.84 279.486 20.2667 280.425 21.12C281.364 21.9733 281.833 22.9547 281.833 24.064C281.833 25.6 281.022 26.88 279.401 27.904C278.121 27.7333 276.884 28.032 275.689 28.8C274.494 29.568 273.428 30.5067 272.489 31.616C271.636 32.7253 270.996 33.7067 270.569 34.56ZM248.553 96.768C247.444 96.768 246.377 96.512 245.353 96C244.329 95.5733 243.476 94.6773 242.793 93.312C241.854 91.264 241.385 88.832 241.385 86.016C241.385 82.944 241.854 79.5307 242.793 75.776C243.732 71.936 244.969 68.0107 246.505 64C247.102 62.5493 247.87 60.7573 248.809 58.624C249.748 56.4907 250.857 54.3573 252.137 52.224C253.417 50.0907 254.868 48.3413 256.489 46.976C258.196 45.5253 260.03 44.8 261.993 44.8C262.932 44.8 264.254 44.8427 265.961 44.928C267.668 45.0133 268.905 45.0133 269.673 44.928C269.161 45.2693 268.564 45.952 267.881 46.976C267.198 48 266.558 49.0667 265.961 50.176C265.364 51.2 264.894 52.0107 264.553 52.608C262.334 57.0453 260.244 61.44 258.281 65.792C256.318 70.144 254.825 74.3253 253.801 78.336C253.63 79.0187 253.502 79.7013 253.417 80.384C253.332 81.0667 253.289 81.7067 253.289 82.304C253.289 84.7787 254.1 86.016 255.721 86.016C256.404 86.016 257.129 85.8453 257.897 85.504C258.75 85.0773 259.732 84.4373 260.841 83.584C262.804 82.048 264.51 80.2987 265.961 78.336C267.668 76.1173 269.289 73.7707 270.825 71.296C272.361 68.736 273.684 66.3893 274.793 64.256C275.22 63.5733 275.518 63.232 275.689 63.232C276.201 63.232 276.457 63.9573 276.457 65.408C276.457 66.0907 276.329 66.9013 276.073 67.84C275.902 68.6933 275.604 69.504 275.177 70.272C273.982 72.32 272.574 74.5813 270.953 77.056C269.332 79.5307 267.668 81.92 265.961 84.224C264.766 85.8453 263.188 87.6373 261.225 89.6C259.262 91.5627 257.172 93.2693 254.953 94.72C252.734 96.0853 250.601 96.768 248.553 96.768Z" fill="#181818"/>
<path d="M277.711 96.768C275.322 96.768 273.53 95.9147 272.335 94.208C271.14 92.416 270.543 90.0267 270.543 87.04C270.543 86.6133 270.543 86.1867 270.543 85.76C270.543 85.3333 270.586 84.9067 270.671 84.48C271.098 81.2373 271.823 77.568 272.847 73.472C273.956 69.376 275.236 65.0667 276.687 60.544C277.54 57.984 278.607 54.784 279.887 50.944C281.252 47.0187 282.831 42.8373 284.623 38.4C286.415 33.8773 288.378 29.3973 290.511 24.96C292.73 20.5227 295.162 16.512 297.807 12.928C300.452 9.25867 303.226 6.31467 306.127 4.096C309.114 1.87734 312.271 0.768005 315.599 0.768005C318.33 0.768005 320.207 1.45067 321.231 2.816C322.255 4.096 322.767 5.632 322.767 7.424C322.767 9.30134 322.426 11.2213 321.743 13.184C321.06 15.0613 320.378 16.64 319.695 17.92C318.159 20.992 316.154 24.448 313.679 28.288C311.204 32.128 308.602 35.712 305.871 39.04C304.25 41.1733 302.244 43.5627 299.855 46.208C297.466 48.8533 295.204 51.2853 293.071 53.504C291.023 55.7227 289.53 57.2587 288.591 58.112L286.543 64C285.946 65.6213 285.348 67.5413 284.751 69.76C284.239 71.9787 283.77 74.1973 283.343 76.416C283.002 78.5493 282.703 80.4267 282.447 82.048C282.362 82.3893 282.319 82.7307 282.319 83.072C282.319 83.4133 282.319 83.712 282.319 83.968C282.319 86.528 283.3 87.808 285.263 87.808C286.458 87.808 287.951 87.2533 289.743 86.144C291.45 85.12 293.071 83.7973 294.607 82.176C296.228 80.4693 297.38 79.1893 298.063 78.336C299.77 76.1173 301.391 73.7707 302.927 71.296C304.463 68.736 305.786 66.3893 306.895 64.256C307.322 63.5733 307.62 63.232 307.791 63.232C308.303 63.232 308.559 63.9573 308.559 65.408C308.559 66.0907 308.431 66.9013 308.175 67.84C308.004 68.6933 307.706 69.504 307.279 70.272C306.084 72.32 304.676 74.5813 303.055 77.056C301.434 79.5307 299.77 81.92 298.063 84.224C296.783 85.9307 294.991 87.7653 292.687 89.728C290.383 91.6907 287.908 93.3547 285.263 94.72C282.618 96.0853 280.1 96.768 277.711 96.768ZM291.151 50.816C295.418 45.7813 299.727 40.4053 304.079 34.688C308.516 28.8853 312.186 22.9973 315.087 17.024C315.258 16.5973 315.642 15.744 316.239 14.464C316.836 13.184 317.391 11.776 317.903 10.24C318.415 8.61867 318.671 7.25334 318.671 6.144C318.671 4.69334 318.116 3.968 317.007 3.968H316.111C315.002 3.968 313.679 4.736 312.143 6.272C310.692 7.808 309.199 9.856 307.663 12.416C305.7 15.6587 303.78 19.4133 301.903 23.68C300.026 27.8613 298.191 32.2987 296.399 36.992C294.607 41.6853 292.858 46.2933 291.151 50.816Z" fill="#181818"/>
<path d="M333.016 94.208C329.091 96.256 324.952 97.28 320.6 97.28C316.931 97.28 313.517 96.384 310.36 94.592C307.203 92.8 305.069 89.9413 303.96 86.016C303.448 84.224 303.192 82.3467 303.192 80.384C303.192 77.1413 303.747 73.8133 304.856 70.4C306.051 66.9013 307.587 63.7013 309.464 60.8C312.365 56.2773 316.035 52.5227 320.472 49.536C324.909 46.5493 329.816 45.056 335.192 45.056C339.203 45.056 342.317 46.08 344.536 48.128C346.755 50.176 347.864 52.5653 347.864 55.296C347.864 58.5387 346.755 61.3973 344.536 63.872C342.403 66.2613 339.587 68.096 336.088 69.376C334.381 69.9733 332.547 70.4427 330.584 70.784C328.707 71.04 326.915 71.168 325.208 71.168C321.709 71.168 319.021 70.6987 317.144 69.76C315.523 73.9413 314.712 77.7813 314.712 81.28C314.712 84.4373 315.437 87.04 316.888 89.088C318.339 91.0507 320.643 92.032 323.8 92.032C326.445 92.032 329.048 91.3067 331.608 89.856C334.253 88.4053 336.685 86.6133 338.904 84.48C341.208 82.3467 343.128 80.2987 344.664 78.336C345.859 76.8853 346.883 75.52 347.736 74.24C348.589 72.96 349.485 71.5093 350.424 69.888C351.363 68.1813 352.472 66.0907 353.752 63.616C354.093 63.0187 354.392 62.72 354.648 62.72C355.16 62.72 355.416 63.4027 355.416 64.768C355.416 65.536 355.288 66.3893 355.032 67.328C354.861 68.1813 354.52 69.0773 354.008 70.016C352.813 72.1493 351.363 74.496 349.656 77.056C348.035 79.5307 346.371 81.92 344.664 84.224C343.128 86.272 341.379 88.1493 339.416 89.856C337.453 91.5627 335.32 93.0133 333.016 94.208ZM321.368 66.944C321.795 67.2 322.264 67.3707 322.776 67.456C323.288 67.5413 323.8 67.584 324.312 67.584C326.019 67.584 327.725 67.2 329.432 66.432C331.139 65.5787 332.589 64.7253 333.784 63.872C335.747 62.5067 337.411 60.8853 338.776 59.008C340.141 57.1307 340.909 54.9973 341.08 52.608C341.165 51.584 340.909 50.7307 340.312 50.048C339.8 49.28 338.861 48.896 337.496 48.896C336.813 48.896 335.96 49.024 334.936 49.28C333.571 49.6213 332.205 50.2613 330.84 51.2C329.475 52.1387 328.152 53.248 326.872 54.528C326.445 54.9547 325.677 55.808 324.568 57.088C323.544 58.2827 322.563 59.648 321.624 61.184C320.685 62.6347 320.216 63.9147 320.216 65.024C320.216 65.9627 320.6 66.6027 321.368 66.944Z" fill="#181818"/>
</svg>
